<svg width="58.109mm" height="7.6586mm" version="1.1" viewBox="0 0 58.109 7.6586" xmlns="http://www.w3.org/2000/svg" xmlns:cc="http://creativecommons.org/ns#" xmlns:dc="http://purl.org/dc/elements/1.1/" xmlns:rdf="http://www.w3.org/1999/02/22-rdf-syntax-ns#">
 <g transform="translate(-165.7 -148.52)">
  <g stroke-width=".28365" aria-label="Optimus">
   <path d="m165.74 153.73 1.3956-4.3229q0.13615-0.41981 0.70346-0.65808 0.57865-0.23827 1.736-0.23827h4.9129q1.0212 0 1.4523 0.1702 0.4425 0.17019 0.4425 0.49922 0 0.1475-0.0454 0.22693l-1.3956 4.3229q-0.1475 0.45384-0.71481 0.68077-0.55595 0.21557-1.7246 0.21557h-4.9129q-0.99846 0-1.4523-0.17019-0.44249-0.17019-0.44249-0.49923 0-0.1475 0.0454-0.22692zm2.5529-0.13615h4.1867q0.3177 0 0.34039-0.0908l1.2594-3.8804q0-0.0794-0.28365-0.0794h-4.1867q-0.28365 0-0.34038 0.0908l-1.2594 3.8804q0 0.0794 0.28365 0.0794z"/>
   <path d="m175.32 156.17 1.5431-4.7654q0.13615-0.41981 0.70346-0.65807 0.5673-0.23827 1.7246-0.23827h3.3584q1.0212 0 1.441 0.18154 0.43116 0.18153 0.43116 0.51057 0 0.10211-0.034 0.20423l-0.74885 2.326q-0.14749 0.45384-0.7148 0.68077-0.55596 0.21557-1.7133 0.21557h-3.3017l-0.49922 1.5431zm3.3244-2.5642h2.6436q0.295 0 0.32903-0.10211l0.61269-1.8948q0-0.0794-0.26096-0.0794h-2.6436q-0.30634 0-0.34038 0.10211l-0.61269 1.8948q0 0.0794 0.27231 0.0794z"/>
   <path d="m186.45 148.89h2.1671l-0.52192 1.6338h4.3229l-0.34039 1.0212h-4.3229l-0.63538 1.9742q0 0.0908 0.2723 0.0908h2.5188l-0.32904 1.0212h-2.8819q-0.99846 0-1.4296-0.15884-0.43115-0.1702-0.43115-0.49923 0-0.15885 0.0454-0.23827z"/>
   <path d="m193.52 150.51h2.2011l-1.3388 4.1186h-2.2011z"/>
   <path d="m205.94 151.39-1.0552 3.245h-2.2012l0.97577-3.0294q0-0.0794-0.27231-0.0794h-1.0779l-1.0098 3.1088h-2.2011l1.0098-3.1088h-1.3842l-1.0098 3.1088h-2.2011l1.3388-4.1186h7.2275q1.0212 0 1.4523 0.17019 0.4425 0.17019 0.4425 0.49923 0 0.10211-0.034 0.20423z"/>
   <path d="m208.89 153.62h2.6436q0.29499 0 0.32903-0.0908l0.97577-3.0181h2.1898l-1.0552 3.245q-0.1475 0.4425-0.70346 0.65808-0.55596 0.21557-1.7133 0.21557h-3.3584q-1.0212 0-1.4523-0.15884-0.43115-0.15885-0.43115-0.48789 0-0.10211 0.034-0.22692l1.0552-3.245h2.1898l-0.97576 3.0294q0 0.0794 0.2723 0.0794z"/>
   <path d="m220.31 153.62q0.295 0 0.32903-0.0908l0.11346-0.36308q0-0.0908-0.26096-0.0908h-3.0067q-1.0212 0-1.4523-0.15885-0.43115-0.17019-0.43115-0.49923 0-0.10211 0.034-0.22692l0.26096-0.80557q0.13616-0.41981 0.69212-0.64673 0.5673-0.22692 1.7246-0.22692h5.4915l-0.32904 1.0098h-5.1284q-0.30634 0-0.34038 0.0908l-0.11346 0.37442q0 0.0794 0.2723 0.0794h2.9954q1.0212 0 1.4523 0.18154 0.43116 0.17019 0.43116 0.49923 0 0.10211-0.034 0.20423l-0.26096 0.80557q-0.1475 0.4425-0.70346 0.65808-0.55596 0.21557-1.7133 0.21557h-5.4915l0.32903-1.0098z"/>
  </g>
 </g>
</svg>
